<?xml version="1.0" encoding="UTF-8"?>
<svg width="512px" height="372px" viewBox="0 0 512 372" version="1.1" xmlns="http://www.w3.org/2000/svg" xmlns:xlink="http://www.w3.org/1999/xlink">
    <!-- Generator: Sketch 42 (36781) - http://www.bohemiancoding.com/sketch -->
    <title>pet</title>
    <desc>Created with Sketch.</desc>
    <defs></defs>
    <g id="Page-1" stroke="none" stroke-width="1" fill="none" fill-rule="evenodd">
        <g id="dollar-symbol" fill-rule="nonzero">
            <path d="M506.101,184.285 L498.846,181.732 C487.611,177.778 478.982,168.466 476.343,156.853 C468.622,122.868 429.859,91.017 391.192,87.59 C386.754,87.197 382.741,85.072 380.143,81.452 C345.373,32.984 279.113,0.214 203.034,0.214 C90.901,0.212 0,71.353 0,159.109 C0,246.865 90.901,318.006 203.034,318.006 C247.011,318.006 287.7,307.045 320.94,288.447 C327.713,284.658 335.336,282.646 343.087,282.284 C375.105,280.789 434.932,274.671 488.935,250.789 C493.661,248.699 497.171,244.531 498.623,239.571 L511.641,195.091 C512.96,190.589 510.526,185.842 506.101,184.285 Z" id="Shape" fill="#F0C087"></path>
            <g id="Group" transform="translate(26.000000, 21.000000)" fill="#E6AF78">
                <path d="M240.22,242.659 L265.925,335.671 C268.38,344.555 277.204,350.787 287.327,350.787 L287.327,350.787 C297.843,350.787 306.897,344.073 308.959,334.744 L329.744,240.731 C335.423,215.042 313.703,191.074 284.742,191.074 L284.742,191.074 C254.886,191.074 232.979,216.457 240.22,242.659 Z" id="Shape"></path>
                <path d="M0.483,203.579 L0.483,203.579 C0.483,205.927 0.796,208.266 1.418,210.552 L36.067,338.068 C38.026,345.277 45.455,350.373 54.008,350.373 L54.008,350.373 C62.561,350.373 69.99,345.278 71.949,338.068 L93.139,260.085 C101.758,228.364 86.263,195.392 54.514,177.897 L54.514,177.897 C31.109,165 0.483,179.558 0.483,203.579 Z" id="Shape"></path>
                <path d="M374.033,94.424 L402.385,9.367 C404.194,3.942 398.964,-1.243 393.593,0.714 C370.708,9.049 327.025,32.804 343.385,89.554 C344.181,92.314 346.38,94.512 349.104,95.42 L362.866,100.007 C367.492,101.549 372.492,99.049 374.033,94.424 Z" id="Shape"></path>
            </g>
            <path d="M423.724,185.592 L423.724,185.592 C418.849,185.592 414.896,181.639 414.896,176.764 L414.896,167.936 C414.896,163.061 418.849,159.108 423.724,159.108 L423.724,159.108 C428.599,159.108 432.552,163.061 432.552,167.936 L432.552,176.764 C432.552,181.639 428.599,185.592 423.724,185.592 Z" id="Shape" fill="#D29B6E"></path>
            <path d="M488.937,250.789 C490.786,249.971 492.379,248.762 493.805,247.385 L448.515,247.385 C444.234,247.385 440.215,249.181 437.315,252.33 C431.847,258.267 420.64,268.361 402.358,275.861 C429.454,271.243 460.013,263.58 488.937,250.789 Z" id="Shape" fill="#E6AF78"></path>
        </g>
    </g>
</svg>