<?xml version="1.0" encoding="UTF-8"?>
<svg width="42px" height="40px" viewBox="0 0 42 40" version="1.1" xmlns="http://www.w3.org/2000/svg" xmlns:xlink="http://www.w3.org/1999/xlink">
    <!-- Generator: Sketch 42 (36781) - http://www.bohemiancoding.com/sketch -->
    <title>shiny_icon_old</title>
    <desc>Created with Sketch.</desc>
    <defs>
        <polygon id="path-1" points="20.8450704 0 41.6901408 26.4788732 30.9859155 40 10.7042254 40 0 26.4788732"></polygon>
        <mask id="mask-2" maskContentUnits="userSpaceOnUse" maskUnits="objectBoundingBox" x="0" y="0" width="41.6901408" height="40" fill="white">
            <use xlink:href="#path-1"></use>
        </mask>
    </defs>
    <g id="Symbols" stroke="none" stroke-width="1" fill="none" fill-rule="evenodd">
        <g id="shiny_icon_old">
            <path d="M18.6693338,29.5633329 L16,29.5633329 L11.7333333,24.2299995 L17.8333333,24.2299995 L22.9360004,24.2299995 L27.2,18.9000001 L34.1333333,18.9000001 L29.8666667,24.2333334 L27.4333333,24.2333334 L29.8666667,24.2333334 L25.6,29.5666668 L18.6666667,29.5666668 L18.6693338,29.5633329 Z M34.1333333,18.9000001 L7.46666667,18.9000001 L3.2,13.5666668 L38.4,13.5666668 L34.1333333,18.9000001 Z M14.4,8.23333343 L10.1333333,13.5666668 L3.2,13.5666668 L7.46666667,8.23333343 L14.4,8.23333343 Z M16,29.5666668 L25.6,29.5666668 L22.9333333,32.7666668 L18.6666667,32.7666668 L16,29.5666668 Z M20.8,35.4333334 L18.6666667,32.7666668 L22.9333333,32.7666668 L20.8,35.4333334 Z M29.8666667,2.9000001 L34.1333333,8.23333343 L7.46666667,8.23333343 L11.7333333,2.9000001 L29.8666667,2.9000001 Z" id="Combined-Shape" fill="#4990E2"></path>
            <use id="Polygon-path" stroke="#4990E2" mask="url(#mask-2)" stroke-width="3.2" transform="translate(20.845070, 20.000000) scale(1, -1) translate(-20.845070, -20.000000) " xlink:href="#path-1"></use>
        </g>
    </g>
</svg>