<?xml version="1.0" encoding="UTF-8"?>
<svg width="160px" height="40px" viewBox="0 0 160 40" version="1.1" xmlns="http://www.w3.org/2000/svg" xmlns:xlink="http://www.w3.org/1999/xlink">
    <!-- Generator: Sketch 42 (36781) - http://www.bohemiancoding.com/sketch -->
    <title>shiny_logo_old</title>
    <desc>Created with Sketch.</desc>
    <defs>
        <polygon id="path-1" points="20.8450704 0 41.6901408 26.4788732 30.9859155 40 10.7042254 40 0 26.4788732"></polygon>
        <mask id="mask-2" maskContentUnits="userSpaceOnUse" maskUnits="objectBoundingBox" x="0" y="0" width="41.6901408" height="40" fill="white">
            <use xlink:href="#path-1"></use>
        </mask>
    </defs>
    <g id="Symbols" stroke="none" stroke-width="1" fill="none" fill-rule="evenodd">
        <g id="shiny_logo_old">
            <g id="shiny_icon_old">
                <path d="M18.6693338,29.5633329 L16,29.5633329 L11.7333333,24.2299995 L17.8333333,24.2299995 L22.9360004,24.2299995 L27.2,18.9000001 L34.1333333,18.9000001 L29.8666667,24.2333334 L27.4333333,24.2333334 L29.8666667,24.2333334 L25.6,29.5666668 L18.6666667,29.5666668 L18.6693338,29.5633329 Z M34.1333333,18.9000001 L7.46666667,18.9000001 L3.2,13.5666668 L38.4,13.5666668 L34.1333333,18.9000001 Z M14.4,8.23333343 L10.1333333,13.5666668 L3.2,13.5666668 L7.46666667,8.23333343 L14.4,8.23333343 Z M16,29.5666668 L25.6,29.5666668 L22.9333333,32.7666668 L18.6666667,32.7666668 L16,29.5666668 Z M20.8,35.4333334 L18.6666667,32.7666668 L22.9333333,32.7666668 L20.8,35.4333334 Z M29.8666667,2.9000001 L34.1333333,8.23333343 L7.46666667,8.23333343 L11.7333333,2.9000001 L29.8666667,2.9000001 Z" id="Combined-Shape" fill="#4990E2" fill-rule="evenodd"></path>
                <use id="Polygon-path" stroke="#4990E2" mask="url(#mask-2)" stroke-width="3.2" transform="translate(20.845070, 20.000000) scale(1, -1) translate(-20.845070, -20.000000) " xlink:href="#path-1"></use>
            </g>
            <path d="M66.0703518,14.7211055 C65.4003317,14.1767142 64.7303216,13.7736613 64.0603015,13.5119347 C63.3902814,13.2502081 62.7412092,13.1193467 62.1130653,13.1193467 C61.3174165,13.1193467 60.6683442,13.3077871 60.1658291,13.6846734 C59.6633141,14.0615597 59.4120603,14.5535983 59.4120603,15.160804 C59.4120603,15.5795666 59.5376872,15.9250405 59.7889447,16.1972362 C60.0402023,16.4694318 60.3699728,16.7049823 60.7782663,16.9038945 C61.1865598,17.1028067 61.6471917,17.2755437 62.1601759,17.4221106 C62.67316,17.5686774 63.180902,17.7257111 63.6834171,17.8932161 C65.6934774,18.5632362 67.1643588,19.4583277 68.0961055,20.5785176 C69.0278522,21.6987074 69.4937186,23.15912 69.4937186,24.959799 C69.4937186,26.1742104 69.2895749,27.2734457 68.8812814,28.2575377 C68.4729879,29.2416297 67.8762602,30.0843767 67.0910804,30.785804 C66.3059006,31.4872313 65.3427611,32.0316145 64.2016332,32.4189698 C63.0605052,32.8063252 61.7675952,33 60.3228643,33 C57.328712,33 54.5544516,32.1101429 52,30.330402 L54.638191,25.3680905 C55.5594686,26.1846774 56.4702635,26.7918741 57.370603,27.1896985 C58.2709425,27.5875229 59.1607996,27.7864322 60.040201,27.7864322 C61.0452312,27.7864322 61.793758,27.5561162 62.285804,27.0954774 C62.77785,26.6348386 63.0238693,26.1113932 63.0238693,25.5251256 C63.0238693,25.1691774 62.9610559,24.8603447 62.8354271,24.5986181 C62.7097984,24.3368915 62.5004202,24.0961066 62.2072864,23.8762563 C61.9141526,23.6564059 61.5320375,23.4522622 61.0609296,23.2638191 C60.5898218,23.0753759 60.0192663,22.8659978 59.3492462,22.6356784 C58.5535974,22.3844209 57.7736638,22.1069948 57.0094221,21.803392 C56.2451804,21.4997891 55.5647015,21.0967362 54.9679648,20.5942211 C54.3712282,20.091706 53.8896584,19.4583372 53.5232412,18.6940955 C53.156824,17.9298538 52.9736181,16.9614799 52.9736181,15.7889447 C52.9736181,14.6164095 53.1672929,13.5538155 53.5546482,12.6011307 C53.9420036,11.6484458 54.4863868,10.8318711 55.1878141,10.1513819 C55.8892414,9.47089274 56.7476917,8.94221294 57.763191,8.56532663 C58.7786902,8.18844033 59.9145666,8 61.1708543,8 C62.3433894,8 63.5682516,8.16226806 64.8454774,8.48680905 C66.1227032,8.81135003 67.3475653,9.2876853 68.5201005,9.91582915 L66.0703518,14.7211055 Z M79.5125628,17.798995 L88.4007538,17.798995 L88.4007538,8.65954774 L94.5565327,8.65954774 L94.5565327,32.3404523 L88.4007538,32.3404523 L88.4007538,22.5728643 L79.5125628,22.5728643 L79.5125628,32.3404523 L73.3567839,32.3404523 L73.3567839,8.65954774 L79.5125628,8.65954774 L79.5125628,17.798995 Z M105.674623,8.65954774 L105.674623,32.3404523 L99.5188442,32.3404523 L99.5188442,8.65954774 L105.674623,8.65954774 Z M110.636935,32.3404523 L110.636935,8.65954774 L116.792714,8.65954774 L128.16206,23.138191 L128.16206,8.65954774 L134.286432,8.65954774 L134.286432,32.3404523 L128.16206,32.3404523 L116.792714,17.861809 L116.792714,32.3404523 L110.636935,32.3404523 Z M144.964824,20.9711055 L136.327889,8.65954774 L143.677136,8.65954774 L148.074121,15.129397 L152.439698,8.65954774 L159.788945,8.65954774 L151.120603,20.9711055 L151.120603,32.3404523 L144.964824,32.3404523 L144.964824,20.9711055 Z" id="SHINY" fill="#4990E2"></path>
        </g>
    </g>
</svg>