<?xml version="1.0" encoding="UTF-8"?>
<svg width="117px" height="32px" viewBox="0 0 117 32" version="1.1" xmlns="http://www.w3.org/2000/svg" xmlns:xlink="http://www.w3.org/1999/xlink">
    <!-- Generator: Sketch 42 (36781) - http://www.bohemiancoding.com/sketch -->
    <title>shiny_logo</title>
    <desc>Created with Sketch.</desc>
    <defs></defs>
    <g id="Symbols" stroke="none" stroke-width="1" fill="none" fill-rule="evenodd">
        <g id="shiny_logo" fill="#FFFFFF">
            <g id="Shiny">
                <path d="M0.044661503,11.963964 L10.9505177,11.963964 L16.1853287,32 L0.044661503,11.963964 Z M6.24500451e-15,10.5225225 L7.82469532,0 L10.5739126,10.5225225 L5.38458167e-15,10.5225225 Z M23.3311416,11.963964 L34.2369978,11.963964 L18.0963306,32 L23.3311416,11.963964 Z M23.7077467,10.5225225 L26.456964,0 L34.2816593,10.5225225 L23.7077467,10.5225225 Z M17.1408296,32 L9.01907152,0 L25.2625878,0 L17.1408296,32 Z" id="Combined-Shape"></path>
            </g>
            <path d="M55.0172336,10.7444192 C54.8972195,10.9364417 54.7712067,11.0804564 54.6391912,11.1764676 C54.5071758,11.2724789 54.3371585,11.3204837 54.1291341,11.3204837 C53.9451126,11.3204837 53.7470924,11.2624778 53.5350676,11.1464643 C53.3230428,11.0304507 53.0830183,10.9004374 52.814987,10.7564206 C52.5469556,10.6124037 52.2409244,10.4823905 51.8968842,10.3663769 C51.5528439,10.2503634 51.160804,10.1923574 50.7207525,10.1923574 C49.9606636,10.1923574 49.3946059,10.354374 49.0225624,10.6784119 C48.6505188,11.0024498 48.4644999,11.4404944 48.4644999,11.992559 C48.4644999,12.3446002 48.5765113,12.63663 48.8005375,12.8686571 C49.0245637,13.1006842 49.3185937,13.3007046 49.6826363,13.4687243 C50.0466788,13.6367439 50.4627213,13.7907596 50.930776,13.930776 C51.3988308,14.0707924 51.8768795,14.2268083 52.3649366,14.3988284 C52.8529937,14.5708485 53.3310424,14.7728691 53.7990972,15.0048963 C54.2671519,15.2369234 54.6831943,15.5329536 55.0472369,15.8929957 C55.4112795,16.2530378 55.7053095,16.6910825 55.9293357,17.2071429 C56.1533619,17.7232032 56.2653733,18.3452666 56.2653733,19.0733518 C56.2653733,19.8814463 56.125359,20.6375234 55.8453263,21.3416058 C55.5652935,22.0456881 55.1592521,22.6597507 54.6271899,23.183812 C54.0951277,23.7078733 53.4390608,24.1199154 52.6589695,24.4199504 C51.8788783,24.7199855 50.9927879,24.8700008 50.0006719,24.8700008 C49.4566082,24.8700008 48.9025517,24.8139951 48.3384858,24.701982 C47.7744198,24.5899689 47.2283641,24.4319528 46.7003023,24.2279289 C46.1722406,24.0239051 45.67619,23.7818804 45.2121357,23.5018477 C44.7480814,23.2218149 44.3440402,22.9097831 44,22.5657428 L45.2001344,20.6695305 C45.2881447,20.5255137 45.4121573,20.4095019 45.572176,20.3214916 C45.7321947,20.2334813 45.9042123,20.1894768 46.0882338,20.1894768 C46.3282619,20.1894768 46.5702866,20.2654845 46.8143151,20.4175023 C47.0583437,20.5695201 47.3343718,20.7375372 47.6424078,20.9215587 C47.9504439,21.1055803 48.30448,21.2735974 48.7045267,21.4256152 C49.1045735,21.577633 49.5766217,21.6536407 50.1206853,21.6536407 C50.8567714,21.6536407 51.4288297,21.4916242 51.8368775,21.1675863 C52.2449252,20.8435484 52.448946,20.329496 52.448946,19.6254136 C52.448946,19.2173659 52.3369346,18.885332 52.1129084,18.6293021 C51.8888822,18.3732721 51.5948522,18.1612505 51.2308096,17.9932309 C50.866767,17.8252112 50.4527248,17.6771961 49.9886705,17.5491812 C49.5246163,17.4211662 49.0485677,17.2791517 48.5605106,17.1231335 C48.0724535,16.9671152 47.596405,16.7750956 47.1323507,16.547069 C46.6682964,16.3190423 46.2542542,16.0190117 45.8902116,15.6469682 C45.5261691,15.2749247 45.2321391,14.8108773 45.0081129,14.2548123 C44.7840867,13.6987473 44.6720752,13.0126773 44.6720752,12.1965818 C44.6720752,11.5405051 44.8040887,10.9004398 45.0681196,10.2763668 C45.3321505,9.65229385 45.72019,9.09623715 46.2322499,8.60818006 C46.7443098,8.12012298 47.3723739,7.7300832 48.1164609,7.43804905 C48.8605479,7.14601489 49.7126348,7 50.6727471,7 C51.2088098,7 51.7308631,7.04200428 52.2389225,7.12601411 C52.7469819,7.21002394 53.2290311,7.33403658 53.6850844,7.49805577 C54.1411377,7.66207495 54.5671812,7.85809494 54.9632275,8.08612161 C55.3592738,8.31414828 55.7133099,8.57217459 56.0253464,8.86020828 L55.0172336,10.7444192 Z M73.5473083,24.6779793 L69.4668514,24.6779793 L69.4668514,17.2851516 L62.3620559,17.2851516 L62.3620559,24.6779793 L58.2815991,24.6779793 L58.2815991,7.1920215 L62.3620559,7.1920215 L62.3620559,14.5008398 L69.4668514,14.5008398 L69.4668514,7.1920215 L73.5473083,7.1920215 L73.5473083,24.6779793 Z M80.868128,24.6779793 L76.7876711,24.6779793 L76.7876711,7.1920215 L80.868128,7.1920215 L80.868128,24.6779793 Z M86.24473,7.1920215 C86.4207506,7.1920215 86.5687657,7.20002232 86.6887797,7.21602419 C86.8087937,7.23202606 86.9168048,7.26202912 87.012816,7.30603427 C87.1088272,7.35003941 87.2008366,7.41204574 87.2888469,7.49205509 C87.3768572,7.57206445 87.4768674,7.68007547 87.5888805,7.81609137 L95.8938104,18.3172672 C95.8618066,17.9812278 95.8378042,17.6551946 95.8218023,17.3391576 C95.8058004,17.0231207 95.7977996,16.7250903 95.7977996,16.4450575 L95.7977996,7.1920215 L99.3742,7.1920215 L99.3742,24.6779793 L97.2619635,24.6779793 C96.9499271,24.6779793 96.6859001,24.6299744 96.4698749,24.5339632 C96.2538496,24.437952 96.0458284,24.261934 95.845805,24.0059041 L87.6008818,13.5887377 C87.6248846,13.8927733 87.6448867,14.1908037 87.6608886,14.4828378 C87.6768904,14.774872 87.6848912,15.0488999 87.6848912,15.3049299 L87.6848912,24.6779793 L84.1084908,24.6779793 L84.1084908,7.1920215 L86.24473,7.1920215 Z M110.967498,18.0292349 L110.967498,24.6779793 L106.911044,24.6779793 L106.911044,18.0292349 L100.574334,7.1920215 L104.150735,7.1920215 C104.502776,7.1920215 104.782805,7.27402986 104.990829,7.43804905 C105.198853,7.60206823 105.36687,7.81208965 105.494885,8.06811959 L107.967162,13.1566893 C108.167186,13.5647371 108.351204,13.9407754 108.519224,14.2848157 C108.687244,14.6288559 108.835259,14.9688906 108.963274,15.3049299 C109.083288,14.9608896 109.227302,14.6168546 109.395322,14.2728143 C109.563342,13.9287741 109.74336,13.5567361 109.935383,13.1566893 L112.383657,8.06811959 C112.431662,7.96410743 112.497669,7.86009682 112.581679,7.75608466 C112.665689,7.65207249 112.761698,7.5580629 112.869711,7.47405308 C112.977724,7.39004325 113.101736,7.32203632 113.241753,7.27003023 C113.381769,7.21802415 113.535785,7.1920215 113.703804,7.1920215 L117.304208,7.1920215 L110.967498,18.0292349 Z" id="SHINY"></path>
        </g>
    </g>
</svg>