<?xml version="1.0" encoding="UTF-8"?>
<svg width="361px" height="117px" viewBox="0 0 361 117" version="1.1" xmlns="http://www.w3.org/2000/svg" xmlns:xlink="http://www.w3.org/1999/xlink">
    <!-- Generator: Sketch 43.2 (39069) - http://www.bohemiancoding.com/sketch -->
    <title>shiny_logo</title>
    <desc>Created with Sketch.</desc>
    <defs></defs>
    <g id="Page-1" stroke="none" stroke-width="1" fill="none" fill-rule="evenodd">
        <g id="Desktop" transform="translate(-225.000000, -411.000000)" fill="#4990E2">
            <g id="shiny_logo" transform="translate(225.000000, 411.000000)">
                <g>
                    <path d="M60,116.666667 L0,37.8378378 L30,0 L90,0 L120,37.8378378 L60,116.666667 Z M60,108 L113.333333,38.1801802 L86.6666667,4.66666667 L33.3333333,4.66666667 L6.66666667,38.1801802 L60,108 Z" id="Combined-Shape"></path>
                    <path d="M84.0833333,8 L96.4444444,23.5172414 L23.6666667,23.5172414 L36.0277778,8 L84.0833333,8 Z M96.3666587,53.4022989 L108.034878,37.8850575 L12,37.8850575 L24.0616319,53.4022989 L96.3666587,53.4022989 Z M43.1111111,23.5172414 L31.4444444,37.8850575 L12,37.8850575 L23.6666667,23.5172414 L43.1111111,23.5172414 Z M96.3666587,53.4022989 L59.7777778,100.528736 L59.7777778,76.9137952 L77,53.4022989 L96.3666587,53.4022989 Z M32.0345601,63.6221738 L59.7777778,100.528736 L59.7777778,76.9137952 L49.8123379,63.6221738 L32.0345601,63.6221738 Z" id="Combined-Shape"></path>
                    <path d="M173.140704,42.4422111 C171.800663,41.3534284 170.460643,40.5473226 169.120603,40.0238693 C167.780563,39.5004161 166.482418,39.2386935 165.226131,39.2386935 C163.634833,39.2386935 162.336688,39.6155741 161.331658,40.3693467 C160.326628,41.1231193 159.824121,42.1071966 159.824121,43.321608 C159.824121,44.1591332 160.075374,44.850081 160.577889,45.3944724 C161.080405,45.9388637 161.739946,46.4099645 162.556533,46.8077889 C163.37312,47.2056134 164.294383,47.5510873 165.320352,47.8442211 C166.34632,48.1373549 167.361804,48.4514221 168.366834,48.7864322 C172.386955,50.1264724 175.328718,51.9166555 177.192211,54.1570352 C179.055704,56.3974149 179.987437,59.3182399 179.987437,62.919598 C179.987437,65.3484209 179.57915,67.5468913 178.762563,69.5150754 C177.945976,71.4832594 176.75252,73.1687535 175.182161,74.571608 C173.611801,75.9744626 171.685522,77.063229 169.403266,77.8379397 C167.12101,78.6126504 164.53519,79 161.645729,79 C155.657424,79 150.108903,77.2202858 145,73.660804 L150.276382,63.7361809 C152.118937,65.3693549 153.940527,66.5837481 155.741206,67.379397 C157.541885,68.1750459 159.321599,68.5728643 161.080402,68.5728643 C163.090462,68.5728643 164.587516,68.1122324 165.571608,67.1909548 C166.5557,66.2696771 167.047739,65.2227864 167.047739,64.0502513 C167.047739,63.3383549 166.922112,62.7206894 166.670854,62.1972362 C166.419597,61.673783 166.00084,61.1922133 165.414573,60.7525126 C164.828305,60.3128119 164.064075,59.9045245 163.121859,59.5276382 C162.179644,59.1507519 161.038533,58.7319956 159.698492,58.2713568 C158.107195,57.7688417 156.547328,57.2139896 155.018844,56.6067839 C153.490361,55.9995782 152.129403,55.1934724 150.93593,54.1884422 C149.742456,53.1834121 148.779317,51.9166743 148.046482,50.388191 C147.313648,48.8597076 146.947236,46.9229598 146.947236,44.5778894 C146.947236,42.2328191 147.334586,40.107631 148.109296,38.2022613 C148.884007,36.2968916 149.972774,34.6637421 151.375628,33.3027638 C152.778483,31.9417855 154.495383,30.8844259 156.526382,30.1306533 C158.55738,29.3768807 160.829133,29 163.341709,29 C165.686779,29 168.136503,29.3245361 170.690955,29.9736181 C173.245406,30.6227001 175.695131,31.5753706 178.040201,32.8316583 L173.140704,42.4422111 Z M200.025126,48.5979899 L217.801508,48.5979899 L217.801508,30.3190955 L230.113065,30.3190955 L230.113065,77.6809045 L217.801508,77.6809045 L217.801508,58.1457286 L200.025126,58.1457286 L200.025126,77.6809045 L187.713568,77.6809045 L187.713568,30.3190955 L200.025126,30.3190955 L200.025126,48.5979899 Z M252.349246,30.3190955 L252.349246,77.6809045 L240.037688,77.6809045 L240.037688,30.3190955 L252.349246,30.3190955 Z M262.273869,77.6809045 L262.273869,30.3190955 L274.585427,30.3190955 L297.324121,59.2763819 L297.324121,30.3190955 L309.572864,30.3190955 L309.572864,77.6809045 L297.324121,77.6809045 L274.585427,48.7236181 L274.585427,77.6809045 L262.273869,77.6809045 Z M330.929648,54.9422111 L313.655779,30.3190955 L328.354271,30.3190955 L337.148241,43.258794 L345.879397,30.3190955 L360.577889,30.3190955 L343.241206,54.9422111 L343.241206,77.6809045 L330.929648,77.6809045 L330.929648,54.9422111 Z" id="SHINY">
                    </path>
                </g>
            </g>
        </g>
    </g>
</svg>
